<svg width="1000" height="397" viewBox="0 0 1000 397" fill="none" xmlns="http://www.w3.org/2000/svg">
<mask id="mask0_205976_172270" style="mask-type:luminance" maskUnits="userSpaceOnUse" x="0" y="0" width="357" height="374">
<path d="M0 0H356.024V373.331H0V0Z" fill="white"/>
</mask>
<g mask="url(#mask0_205976_172270)">
<path d="M324.804 277.461V193.532L340.414 201.823V269.097L324.804 277.461ZM164.586 349.14L246.064 305.385V319.722L178.012 356.309L164.586 349.14ZM15.5277 254.241L99.7379 299.559L85.9993 306.953L15.5277 269.097V254.241ZM30.8246 95.2766V178.304L15.5277 170.013V103.41L30.8246 95.2766ZM191.745 24.2638L109.883 69.5135V53.1628L177.935 16.9484L191.745 24.2638ZM340.496 118.423L253.712 72.424L267.682 64.6627L340.496 103.41V118.423ZM223.744 89L238.026 81.0868L340.496 135.372V150.826L223.744 89ZM192.294 106.399L208.057 97.6628L340.496 167.774V184.874L192.294 106.399ZM293.59 176.956L309.354 185.32V285.825L293.59 294.262V176.956ZM261.591 229.673V160.081L278.062 168.823V302.621L261.591 311.51V229.673ZM246.064 271.336V288.363L148.746 340.629L132.905 332.118L246.064 271.336ZM178.012 274.546L229.988 246.622L246.141 237.959V254.314L117.06 323.602L101.763 315.39L178.012 274.546ZM15.5277 220.339L131.188 282.611L115.501 291.048L15.5277 237.214V220.339ZM94.427 229.521V229.673L162.171 266.035L147.028 274.173L15.5277 203.317V187.04L94.427 229.521ZM62.1209 195.105L46.3523 186.589V86.9862L62.1209 78.6222V195.105ZM94.427 143.285V212.499L77.6485 203.464V70.3317L94.427 61.3749V143.285ZM109.883 101.098V86.6138L207.509 32.6278L220.858 39.7227L109.883 101.098ZM109.883 152.021L177.935 115.807L245.982 152.021V221.01L177.853 257.597L109.801 220.937V152.021H109.883ZM109.883 134.774V118.271L236.621 48.2336L251.836 56.3722L109.883 134.774ZM178.012 0L0 94.6788V277.76L178.012 373.331L356.024 277.76V94.6788L178.012 0Z" fill="#EDBD4E"/>
</g>
<path d="M486.04 63.8679H541.987C568.838 63.8679 591.785 71.3186 610.822 86.22C629.853 101.112 639.374 119.778 639.374 142.218C639.374 164.796 629.889 183.53 610.918 198.432C591.96 213.323 568.983 220.764 541.987 220.764H486.04V63.8679ZM530.064 188.804H536.846C552.92 188.804 566.062 184.403 576.284 175.589C586.517 166.781 591.706 155.722 591.851 142.414C591.851 129.096 586.74 117.998 576.525 109.121C566.303 100.249 553.077 95.8079 536.846 95.8079H530.064V188.804Z" fill="#EDBD4E"/>
<path d="M745.208 63.8679L823.166 220.764H775.884L761.596 189.393H688.079L673.814 220.764H626.508L704.467 63.8679H745.208ZM746.608 158.002L725.079 112.356H724.62L703.067 158.002H746.608Z" fill="#EDBD4E"/>
<path d="M862.994 123.395V220.764H818.97V63.8679H862.994L939.77 161.237H940.253V63.8679H984.252V220.764H940.253L863.453 123.395H862.994Z" fill="#EDBD4E"/>
<path d="M489.733 289.968H474.841C474.419 289.968 474.214 289.802 474.214 289.459V287.321C474.214 286.983 474.419 286.812 474.841 286.812H478.848V262.891H474.841C474.419 262.891 474.214 262.724 474.214 262.381V260.244C474.214 259.906 474.419 259.734 474.841 259.734H488.84C494.584 259.734 499.146 261.077 502.525 263.754C505.916 266.435 507.617 270.121 507.617 274.812C507.617 279.493 506.006 283.194 502.79 285.91C499.568 288.616 495.218 289.968 489.733 289.968ZM483.337 286.812H488.478C498.084 286.763 502.887 282.787 502.887 274.891C502.887 271.102 501.644 268.156 499.17 266.048C496.708 263.945 493.094 262.891 488.333 262.891H483.337V286.812Z" fill="#EDBD4E"/>
<path d="M543.649 289.968H516.11C515.658 289.968 515.435 289.802 515.435 289.459V287.321C515.435 286.983 515.658 286.812 516.11 286.812H520.044V262.891H516.11C515.658 262.891 515.435 262.724 515.435 262.381V260.244C515.435 259.906 515.658 259.734 516.11 259.734H543.649C544.096 259.734 544.325 259.906 544.325 260.244V267.009C544.325 267.376 544.096 267.558 543.649 267.558H540.85C540.427 267.558 540.222 267.376 540.222 267.009V262.891H524.558V273.342H537.688C538.134 273.342 538.364 273.508 538.364 273.832V275.989C538.364 276.332 538.134 276.498 537.688 276.498H524.558V286.812H540.174V282.675C540.174 282.351 540.397 282.184 540.85 282.184H543.649C544.096 282.184 544.325 282.351 544.325 282.675V289.459C544.325 289.802 544.096 289.968 543.649 289.968Z" fill="#EDBD4E"/>
<path d="M585.525 282.341C585.7 282.459 585.79 282.596 585.79 282.753C585.79 282.9 585.706 283.106 585.549 283.381C585.404 283.645 585.145 283.998 584.777 284.439C584.403 284.871 583.751 285.469 582.822 286.224C581.887 286.983 580.867 287.635 579.757 288.184C578.658 288.733 577.204 289.219 575.388 289.635C573.566 290.052 571.629 290.263 569.571 290.263C564.515 290.263 560.303 288.831 556.924 285.969C553.557 283.106 551.88 279.356 551.88 274.714C551.88 270.062 553.575 266.362 556.972 263.617C560.382 260.862 564.491 259.479 569.306 259.479C574.664 259.479 578.55 260.984 580.963 263.989L580.915 260.244C580.849 259.906 581.06 259.734 581.543 259.734H584.439C584.885 259.734 585.115 259.906 585.115 260.244V269.42C585.115 269.788 584.885 269.969 584.439 269.969H581.181C580.758 269.969 580.553 269.788 580.553 269.42V269.028C580.553 267.749 579.467 266.415 577.295 265.028C575.135 263.631 572.449 262.93 569.233 262.93C566.029 262.93 563.139 263.965 560.569 266.028C557.992 268.097 556.707 271.018 556.707 274.793C556.707 278.572 557.998 281.508 560.593 283.596C563.181 285.689 566.222 286.733 569.716 286.733C573.481 286.733 576.45 286.042 578.622 284.655C580.324 283.596 581.573 282.518 582.363 281.42C582.635 281.003 582.967 280.92 583.353 281.165L585.525 282.341Z" fill="#EDBD4E"/>
<path d="M621.672 289.968H594.133C593.681 289.968 593.457 289.802 593.457 289.459V287.321C593.457 286.983 593.681 286.812 594.133 286.812H598.067V262.891H594.133C593.681 262.891 593.457 262.724 593.457 262.381V260.244C593.457 259.906 593.681 259.734 594.133 259.734H621.672C622.118 259.734 622.348 259.906 622.348 260.244V267.009C622.348 267.376 622.118 267.558 621.672 267.558H618.872C618.45 267.558 618.245 267.376 618.245 267.009V262.891H602.581V273.342H615.71C616.157 273.342 616.386 273.508 616.386 273.832V275.989C616.386 276.332 616.157 276.498 615.71 276.498H602.581V286.812H618.196V282.675C618.196 282.351 618.42 282.184 618.872 282.184H621.672C622.118 282.184 622.348 282.351 622.348 282.675V289.459C622.348 289.802 622.118 289.968 621.672 289.968Z" fill="#EDBD4E"/>
<path d="M662.148 289.968H659.348C658.685 289.968 658.166 289.866 657.78 289.655C657.406 289.449 657.056 289.116 656.718 288.655L641.729 269.636L639.123 266.087H639.026V286.812H643.033C643.467 286.812 643.684 286.983 643.684 287.321V289.459C643.684 289.802 643.467 289.968 643.033 289.968H630.579C630.126 289.968 629.903 289.802 629.903 289.459V287.321C629.903 286.983 630.126 286.812 630.579 286.812H634.513V262.891H630.579C630.126 262.891 629.903 262.724 629.903 262.381V260.244C629.903 259.906 630.126 259.734 630.579 259.734H637.843C638.839 259.734 639.714 260.215 640.474 261.166L655.245 279.949L658.214 284.027H658.311V262.891H654.328C653.906 262.891 653.701 262.724 653.701 262.381V260.244C653.701 259.906 653.906 259.734 654.328 259.734H666.806C667.223 259.734 667.434 259.906 667.434 260.244V262.381C667.434 262.724 667.223 262.891 666.806 262.891H662.824V289.459C662.824 289.802 662.595 289.968 662.148 289.968Z" fill="#EDBD4E"/>
<path d="M697.307 289.968H685.215C684.763 289.968 684.539 289.787 684.539 289.419V287.361C684.539 286.998 684.763 286.812 685.215 286.812H689.174V262.891H679.374V267.361C679.374 267.754 679.121 267.95 678.626 267.95H675.73C675.247 267.95 675.006 267.754 675.006 267.361V260.283C675.006 259.921 675.247 259.734 675.73 259.734H706.986C707.468 259.734 707.71 259.921 707.71 260.283V267.361C707.71 267.754 707.468 267.95 706.986 267.95H704.041C703.589 267.95 703.365 267.754 703.365 267.361V262.891H693.663V286.812H697.307C697.79 286.812 698.031 286.998 698.031 287.361V289.419C698.031 289.787 697.79 289.968 697.307 289.968Z" fill="#EDBD4E"/>
<path d="M746.76 289.968H742.247C741.004 289.968 739.966 289.297 739.133 287.949L734.258 279.91C733.836 279.204 733.395 278.685 732.931 278.341C732.46 278.003 731.82 277.822 731 277.792H724.411V286.812H729.069C729.485 286.812 729.696 286.983 729.696 287.321V289.459C729.696 289.802 729.485 289.968 729.069 289.968H715.963C715.511 289.968 715.287 289.802 715.287 289.459V287.321C715.287 286.983 715.511 286.812 715.963 286.812H719.897V262.891H715.963C715.511 262.891 715.287 262.724 715.287 262.381V260.244C715.287 259.906 715.511 259.734 715.963 259.734H731.941C735.622 259.734 738.627 260.528 740.944 262.107C743.261 263.69 744.419 265.93 744.419 268.832C744.419 273.239 741.885 275.989 736.816 277.087C737.456 277.508 738.265 278.449 739.23 279.91L743.599 286.812H746.76C747.177 286.812 747.388 286.983 747.388 287.321V289.459C747.388 289.802 747.177 289.968 746.76 289.968ZM724.411 274.812H731.048C736.919 274.812 739.858 272.861 739.858 268.95C739.858 264.911 736.919 262.891 731.048 262.891H724.411V274.812Z" fill="#EDBD4E"/>
<path d="M792.285 289.968H780.555C780.133 289.968 779.927 289.802 779.927 289.459V287.321C779.927 286.983 780.133 286.812 780.555 286.812H784.199L780.82 279.518H766.363L762.984 286.812H766.604C767.021 286.812 767.232 286.983 767.232 287.321V289.459C767.232 289.802 767.021 289.968 766.604 289.968H754.947C754.524 289.968 754.319 289.802 754.319 289.459V287.321C754.319 286.983 754.524 286.812 754.947 286.812H758.422L769.573 262.891H766.773C766.321 262.891 766.098 262.724 766.098 262.381V260.244C766.098 259.906 766.321 259.734 766.773 259.734H773.821C774.654 259.734 775.281 259.881 775.704 260.166C776.138 260.44 776.512 260.901 776.838 261.538L788.761 286.812H792.285C792.683 286.812 792.888 286.983 792.888 287.321V289.459C792.888 289.802 792.683 289.968 792.285 289.968ZM779.421 276.616L773.676 264.107H773.507L767.715 276.616H779.421Z" fill="#EDBD4E"/>
<path d="M830.174 289.968H801.814C801.362 289.968 801.138 289.802 801.138 289.459V287.321C801.138 286.983 801.362 286.812 801.814 286.812H805.748V262.891H801.814C801.362 262.891 801.138 262.724 801.138 262.381V260.244C801.138 259.906 801.362 259.734 801.814 259.734H814.196C814.642 259.734 814.872 259.921 814.872 260.283V262.342C814.872 262.71 814.642 262.891 814.196 262.891H810.262V286.812H826.746V282.675C826.746 282.351 826.97 282.184 827.422 282.184H830.222C830.638 282.184 830.849 282.351 830.849 282.675V289.419C830.849 289.787 830.62 289.968 830.174 289.968Z" fill="#EDBD4E"/>
<path d="M851.595 289.968H839.141C838.688 289.968 838.465 289.802 838.465 289.459V287.321C838.465 286.983 838.688 286.812 839.141 286.812H843.075V262.891H839.141C838.688 262.891 838.465 262.724 838.465 262.381V260.244C838.465 259.906 838.688 259.734 839.141 259.734H851.595C852.029 259.734 852.246 259.906 852.246 260.244V262.381C852.246 262.724 852.029 262.891 851.595 262.891H847.588V286.812H851.595C852.029 286.812 852.246 286.983 852.246 287.321V289.459C852.246 289.802 852.029 289.968 851.595 289.968Z" fill="#EDBD4E"/>
<path d="M887.411 289.968H860.548C860.065 289.968 859.824 289.787 859.824 289.419V287.616C859.824 287.331 860.168 286.851 860.862 286.184L881.908 262.891H864.193V266.303C864.193 266.695 863.939 266.891 863.444 266.891H860.548C860.065 266.891 859.824 266.695 859.824 266.303V260.283C859.824 259.921 860.065 259.734 860.548 259.734H887.411C887.858 259.734 888.087 259.921 888.087 260.283V261.832C888.087 262.318 887.737 262.891 887.049 263.558L866.003 286.812H883.767V283.4C883.767 283.008 883.99 282.812 884.443 282.812H887.411C887.858 282.812 888.087 283.008 888.087 283.4V289.419C888.087 289.787 887.858 289.968 887.411 289.968Z" fill="#EDBD4E"/>
<path d="M923.862 289.968H896.323C895.87 289.968 895.647 289.802 895.647 289.459V287.321C895.647 286.983 895.87 286.812 896.323 286.812H900.257V262.891H896.323C895.87 262.891 895.647 262.724 895.647 262.381V260.244C895.647 259.906 895.87 259.734 896.323 259.734H923.862C924.308 259.734 924.538 259.906 924.538 260.244V267.009C924.538 267.376 924.308 267.558 923.862 267.558H921.062C920.64 267.558 920.435 267.376 920.435 267.009V262.891H904.771V273.342H917.9C918.347 273.342 918.576 273.508 918.576 273.832V275.989C918.576 276.332 918.347 276.498 917.9 276.498H904.771V286.812H920.386V282.675C920.386 282.351 920.61 282.184 921.062 282.184H923.862C924.308 282.184 924.538 282.351 924.538 282.675V289.459C924.538 289.802 924.308 289.968 923.862 289.968Z" fill="#EDBD4E"/>
<path d="M947.346 289.968H932.454C932.032 289.968 931.827 289.802 931.827 289.459V287.321C931.827 286.983 932.032 286.812 932.454 286.812H936.461V262.891H932.454C932.032 262.891 931.827 262.724 931.827 262.381V260.244C931.827 259.906 932.032 259.734 932.454 259.734H946.453C952.197 259.734 956.759 261.077 960.138 263.754C963.529 266.435 965.231 270.121 965.231 274.812C965.231 279.493 963.62 283.194 960.404 285.91C957.182 288.616 952.831 289.968 947.346 289.968ZM940.95 286.812H946.091C955.697 286.763 960.5 282.787 960.5 274.891C960.5 271.102 959.257 268.156 956.783 266.048C954.321 263.945 950.707 262.891 945.946 262.891H940.95V286.812Z" fill="#EDBD4E"/>
<path d="M511.817 344.311H500.087C499.665 344.311 499.459 344.144 499.459 343.801V341.664C499.459 341.326 499.665 341.154 500.087 341.154H503.732L500.353 333.86H485.895L482.516 341.154H486.137C486.553 341.154 486.764 341.326 486.764 341.664V343.801C486.764 344.144 486.553 344.311 486.137 344.311H474.479C474.057 344.311 473.851 344.144 473.851 343.801V341.664C473.851 341.326 474.057 341.154 474.479 341.154H477.955L489.105 317.233H486.305C485.853 317.233 485.63 317.067 485.63 316.724V314.586C485.63 314.248 485.853 314.077 486.305 314.077H493.353C494.186 314.077 494.813 314.224 495.236 314.508C495.67 314.782 496.044 315.243 496.37 315.88L508.293 341.154H511.817C512.215 341.154 512.42 341.326 512.42 341.664V343.801C512.42 344.144 512.215 344.311 511.817 344.311ZM498.953 330.958L493.208 318.449H493.039L487.247 330.958H498.953Z" fill="#EDBD4E"/>
<path d="M533.8 344.311H521.346C520.894 344.311 520.67 344.144 520.67 343.801V341.664C520.67 341.326 520.894 341.154 521.346 341.154H525.28V317.233H521.346C520.894 317.233 520.67 317.067 520.67 316.724V314.586C520.67 314.248 520.894 314.077 521.346 314.077H533.8C534.235 314.077 534.452 314.248 534.452 314.586V316.724C534.452 317.067 534.235 317.233 533.8 317.233H529.794V341.154H533.8C534.235 341.154 534.452 341.326 534.452 341.664V343.801C534.452 344.144 534.235 344.311 533.8 344.311Z" fill="#EDBD4E"/>
<path d="M575.313 344.311H572.561C572.109 344.311 571.886 344.144 571.886 343.801L571.934 340.899C568.893 343.37 564.838 344.605 559.769 344.605C554.713 344.605 550.489 343.174 547.098 340.311C543.719 337.448 542.03 333.684 542.03 329.017C542.03 325.91 542.88 323.174 544.588 320.821C546.308 318.459 548.486 316.699 551.129 315.547C553.766 314.4 556.632 313.822 559.721 313.822C564.995 313.822 568.796 315.155 571.113 317.822L571.065 314.586C570.999 314.248 571.21 314.077 571.693 314.077H574.589C575.035 314.077 575.265 314.248 575.265 314.586V323.253C575.265 323.596 575.035 323.763 574.589 323.763H571.33C570.908 323.763 570.703 323.596 570.703 323.253V322.743C570.703 321.518 569.653 320.302 567.565 319.096C565.472 317.88 562.798 317.273 559.552 317.273C556.3 317.273 553.373 318.366 550.767 320.547C548.16 322.718 546.857 325.62 546.857 329.253C546.857 332.89 548.166 335.772 550.791 337.899C553.41 340.017 556.348 341.076 559.6 341.076C562.847 341.076 565.417 340.659 567.3 339.821C569.182 338.973 570.588 337.973 571.524 336.821V333.527H561.893C561.471 333.527 561.266 333.346 561.266 332.978V331.037C561.266 330.713 561.471 330.547 561.893 330.547H575.313C575.729 330.547 575.94 330.713 575.94 331.037V343.801C575.94 344.144 575.729 344.311 575.313 344.311Z" fill="#EDBD4E"/>
<path d="M617.149 336.684C617.324 336.801 617.414 336.939 617.414 337.095C617.414 337.242 617.33 337.448 617.173 337.723C617.028 337.988 616.769 338.34 616.401 338.782C616.026 339.213 615.375 339.811 614.446 340.566C613.51 341.326 612.491 341.978 611.38 342.527C610.282 343.076 608.828 343.561 607.012 343.977C605.19 344.394 603.253 344.605 601.195 344.605C596.139 344.605 591.927 343.174 588.548 340.311C585.181 337.448 583.504 333.698 583.504 329.056C583.504 324.405 585.199 320.704 588.596 317.959C592.005 315.204 596.114 313.822 600.93 313.822C606.288 313.822 610.174 315.327 612.587 318.331L612.539 314.586C612.472 314.248 612.684 314.077 613.166 314.077H616.063C616.509 314.077 616.738 314.248 616.738 314.586V323.763C616.738 324.13 616.509 324.312 616.063 324.312H612.804C612.382 324.312 612.177 324.13 612.177 323.763V323.37C612.177 322.091 611.091 320.758 608.918 319.371C606.758 317.974 604.073 317.273 600.857 317.273C597.653 317.273 594.763 318.307 592.192 320.371C589.616 322.439 588.331 325.361 588.331 329.135C588.331 332.914 589.622 335.85 592.217 337.938C594.805 340.032 597.846 341.076 601.34 341.076C605.105 341.076 608.074 340.384 610.246 338.997C611.948 337.938 613.197 336.86 613.987 335.762C614.259 335.345 614.59 335.262 614.977 335.507L617.149 336.684Z" fill="#EDBD4E"/>
<path d="M676.146 344.311H673.346C672.682 344.311 672.163 344.208 671.777 343.997C671.403 343.791 671.053 343.458 670.715 342.997L655.727 323.978L653.12 320.429H653.023V341.154H657.03C657.464 341.154 657.682 341.326 657.682 341.664V343.801C657.682 344.144 657.464 344.311 657.03 344.311H644.576C644.123 344.311 643.9 344.144 643.9 343.801V341.664C643.9 341.326 644.123 341.154 644.576 341.154H648.51V317.233H644.576C644.123 317.233 643.9 317.067 643.9 316.724V314.586C643.9 314.248 644.123 314.077 644.576 314.077H651.841C652.836 314.077 653.711 314.557 654.472 315.508L669.243 334.291L672.211 338.37H672.308V317.233H668.326C667.903 317.233 667.698 317.067 667.698 316.724V314.586C667.698 314.248 667.903 314.077 668.326 314.077H680.804C681.22 314.077 681.431 314.248 681.431 314.586V316.724C681.431 317.067 681.22 317.233 680.804 317.233H676.821V343.801C676.821 344.144 676.592 344.311 676.146 344.311Z" fill="#EDBD4E"/>
<path d="M717.218 344.311H689.679C689.227 344.311 689.003 344.144 689.003 343.801V341.664C689.003 341.326 689.227 341.154 689.679 341.154H693.613V317.233H689.679C689.227 317.233 689.003 317.067 689.003 316.724V314.586C689.003 314.248 689.227 314.077 689.679 314.077H717.218C717.665 314.077 717.894 314.248 717.894 314.586V321.351C717.894 321.718 717.665 321.9 717.218 321.9H714.418C713.996 321.9 713.791 321.718 713.791 321.351V317.233H698.127V327.684H711.256C711.703 327.684 711.932 327.851 711.932 328.174V330.331C711.932 330.674 711.703 330.841 711.256 330.841H698.127V341.154H713.742V337.017C713.742 336.693 713.966 336.527 714.418 336.527H717.218C717.665 336.527 717.894 336.693 717.894 337.017V343.801C717.894 344.144 717.665 344.311 717.218 344.311Z" fill="#EDBD4E"/>
<path d="M747.75 344.311H735.658C735.205 344.311 734.982 344.129 734.982 343.762V341.703C734.982 341.34 735.205 341.154 735.658 341.154H739.616V317.233H729.817V321.704C729.817 322.096 729.563 322.292 729.069 322.292H726.172C725.69 322.292 725.448 322.096 725.448 321.704V314.626C725.448 314.263 725.69 314.077 726.172 314.077H757.428C757.911 314.077 758.152 314.263 758.152 314.626V321.704C758.152 322.096 757.911 322.292 757.428 322.292H754.484C754.031 322.292 753.808 322.096 753.808 321.704V317.233H744.105V341.154H747.75C748.232 341.154 748.474 341.34 748.474 341.703V343.762C748.474 344.129 748.232 344.311 747.75 344.311Z" fill="#EDBD4E"/>
<path d="M802.03 344.311H800.051C798.778 344.311 797.963 343.752 797.613 342.625L791.604 321.233H791.459L785.545 342.625C785.189 343.752 784.363 344.311 783.059 344.311H781.129C779.922 344.311 779.089 343.752 778.643 342.625L769.157 317.233H765.899C765.446 317.233 765.223 317.067 765.223 316.724V314.586C765.223 314.248 765.446 314.077 765.899 314.077H777.557C778.003 314.077 778.232 314.248 778.232 314.586V316.724C778.232 317.067 778.003 317.233 777.557 317.233H773.912L781.949 339.84H782.263L789.48 314.077H793.631L800.872 339.84H801.185L809.223 317.233H805.554C805.132 317.233 804.926 317.067 804.926 316.724V314.586C804.926 314.248 805.132 314.077 805.554 314.077H817.26C817.676 314.077 817.887 314.248 817.887 314.586V316.724C817.887 317.067 817.676 317.233 817.26 317.233H813.953L804.468 342.625C804.046 343.752 803.237 344.311 802.03 344.311Z" fill="#EDBD4E"/>
<path d="M861.121 329.056C861.121 333.674 859.413 337.419 856.004 340.291C852.607 343.169 848.329 344.605 843.164 344.605C837.999 344.605 833.684 343.154 830.227 340.252C826.764 337.34 825.038 333.586 825.038 328.998C825.038 324.41 826.812 320.738 830.372 317.978C833.944 315.209 838.198 313.822 843.14 313.822C848.075 313.822 852.311 315.209 855.835 317.978C859.359 320.738 861.121 324.429 861.121 329.056ZM833.872 337.978C836.526 340.125 839.616 341.193 843.14 341.193C846.663 341.193 849.735 340.125 852.36 337.978C854.978 335.821 856.294 332.875 856.294 329.135C856.294 325.385 854.948 322.449 852.263 320.331C849.59 318.214 846.543 317.155 843.116 317.155C839.7 317.155 836.647 318.214 833.944 320.331C831.253 322.449 829.913 325.385 829.913 329.135C829.913 332.875 831.229 335.821 833.872 337.978Z" fill="#EDBD4E"/>
<path d="M900.214 344.311H895.701C894.458 344.311 893.42 343.639 892.587 342.291L887.712 334.252C887.289 333.546 886.849 333.027 886.384 332.684C885.914 332.345 885.274 332.164 884.453 332.135H877.864V341.154H882.522C882.939 341.154 883.15 341.326 883.15 341.664V343.801C883.15 344.144 882.939 344.311 882.522 344.311H869.417C868.964 344.311 868.741 344.144 868.741 343.801V341.664C868.741 341.326 868.964 341.154 869.417 341.154H873.351V317.233H869.417C868.964 317.233 868.741 317.067 868.741 316.724V314.586C868.741 314.248 868.964 314.077 869.417 314.077H885.395C889.075 314.077 892.08 314.871 894.397 316.449C896.714 318.032 897.873 320.272 897.873 323.174C897.873 327.581 895.339 330.331 890.27 331.429C890.91 331.85 891.718 332.792 892.684 334.252L897.052 341.154H900.214C900.63 341.154 900.842 341.326 900.842 341.664V343.801C900.842 344.144 900.63 344.311 900.214 344.311ZM877.864 329.154H884.502C890.373 329.154 893.311 327.204 893.311 323.292C893.311 319.253 890.373 317.233 884.502 317.233H877.864V329.154Z" fill="#EDBD4E"/>
<path d="M942.311 344.311H937.798C936.555 344.311 935.517 343.639 934.684 342.291L929.809 334.252C929.531 333.796 929.284 333.443 929.061 333.193C928.831 332.948 928.349 332.698 927.612 332.448C926.87 332.189 925.947 332.056 924.837 332.056H917.524V341.154H922.303C922.749 341.154 922.978 341.326 922.978 341.664V343.801C922.978 344.144 922.749 344.311 922.303 344.311H909.076C908.624 344.311 908.4 344.144 908.4 343.801V341.664C908.4 341.326 908.624 341.154 909.076 341.154H913.01V317.233H909.076C908.624 317.233 908.4 317.067 908.4 316.724V314.586C908.4 314.248 908.624 314.077 909.076 314.077H920.685C921.102 314.077 921.313 314.248 921.313 314.586V316.724C921.313 317.067 921.102 317.233 920.685 317.233H917.524V329.056H922.978C926.629 329.056 929.35 328.184 931.136 326.429C932.922 324.679 933.815 321.615 933.815 317.233H930.292C929.869 317.233 929.664 317.067 929.664 316.724V314.586C929.664 314.248 929.869 314.077 930.292 314.077H941.853C942.251 314.077 942.456 314.248 942.456 314.586V316.724C942.456 317.067 942.251 317.233 941.853 317.233H938.256C938.256 324.008 935.903 328.424 931.209 330.488C932.011 330.801 932.633 331.208 933.067 331.703C933.514 332.189 934.039 332.909 934.636 333.86L939.149 341.154H942.311C942.727 341.154 942.939 341.326 942.939 341.664V343.801C942.939 344.144 942.727 344.311 942.311 344.311Z" fill="#EDBD4E"/>
</svg>
