<svg width="18" height="20" viewBox="0 0 18 20" fill="none" xmlns="http://www.w3.org/2000/svg">
<path d="M16.4216 14.8641V10.3679L17.2108 10.812V14.416L16.4216 14.8641ZM8.32121 18.7041L12.4406 16.36V17.1281L9 19.0881L8.32121 18.7041ZM0.785054 13.6199L5.04259 16.0479L4.34799 16.444L0.785054 14.416V13.6199ZM1.55844 5.10388V9.55206L0.785054 9.10792V5.53988L1.55844 5.10388ZM9.69434 1.29986L5.55551 3.72396V2.84777L8.99611 0.907957L9.69434 1.29986ZM17.2149 6.34389L12.8273 3.87988L13.5336 3.4641L17.2149 5.53988V6.34389ZM11.3121 4.76789L12.0342 4.34397L17.2149 7.25185V8.08001L11.3121 4.76789ZM9.72207 5.7L10.519 5.23198L17.2149 8.98797V9.90406L9.72207 5.7ZM14.8435 9.47987L15.6404 9.92795V15.3122L14.8435 15.7642V9.47987ZM13.2257 12.304V8.57585L14.0584 9.04414V16.212L13.2257 16.6879V12.304ZM12.4406 14.536V15.4479L7.52035 18.2481L6.71948 17.7922L12.4406 14.536ZM9 14.7079L11.6278 13.212L12.4445 12.7479V13.6241L5.91836 17.336L5.14497 16.896L9 14.7079ZM0.785054 11.804L6.63266 15.14L5.83957 15.592L0.785054 12.708V11.804ZM4.77408 12.2959V12.304L8.19914 14.252L7.43352 14.688L0.785054 10.8921V10.0201L4.77408 12.2959ZM3.14073 10.4519L2.3435 9.99593V4.66001L3.14073 4.21194V10.4519ZM4.77408 7.67577V11.384L3.92579 10.9V3.7678L4.77408 3.28797V7.67577ZM5.55551 5.41598V4.6398L10.4913 1.74793L11.1662 2.12775L5.55551 5.41598ZM5.55551 8.14406L8.99611 6.20398L12.4365 8.14406V11.8399L8.99197 13.8L5.55136 11.836V8.14406H5.55551ZM5.55551 7.21982V6.33575L11.9632 2.58396L12.7324 3.01996L5.55551 7.21982ZM9 0L0 5.07186V14.8801L9 20L18 14.8801V5.07186L9 0Z" fill="white"/>
</svg>
